<svg width="58" height="58" viewBox="0 0 58 58" fill="none" xmlns="http://www.w3.org/2000/svg">
<g filter="url(#filter0_d)">
<circle cx="29" cy="25" r="25" fill="#1844E0"/>
<circle cx="29" cy="25" r="24.5" stroke="black"/>
</g>
<g filter="url(#filter1_d)">
<path d="M47.9395 22.1357C50.0804 23.2595 50.0804 26.3245 47.9395 27.4483L19.4083 42.4243C17.4076 43.4745 15.0081 42.0197 15.014 39.7602L15.0923 9.84897C15.0982 7.59635 17.492 6.15357 19.4866 7.20052L47.9395 22.1357Z" fill="#FBFBFB"/>
<path d="M47.7071 22.5784C49.4912 23.5149 49.4912 26.0691 47.7071 27.0056L19.1759 41.9816C17.5087 42.8568 15.5091 41.6444 15.514 39.7615L15.5923 9.85028C15.5972 7.97309 17.5921 6.77078 19.2542 7.64324L47.7071 22.5784Z" stroke="black"/>
</g>
<defs>
<filter id="filter0_d" x="0" y="0" width="58" height="58" filterUnits="userSpaceOnUse" color-interpolation-filters="sRGB">
<feFlood flood-opacity="0" result="BackgroundImageFix"/>
<feColorMatrix in="SourceAlpha" type="matrix" values="0 0 0 0 0 0 0 0 0 0 0 0 0 0 0 0 0 0 127 0"/>
<feOffset dy="4"/>
<feGaussianBlur stdDeviation="2"/>
<feColorMatrix type="matrix" values="0 0 0 0 0 0 0 0 0 0 0 0 0 0 0 0 0 0 0.25 0"/>
<feBlend mode="normal" in2="BackgroundImageFix" result="effect1_dropShadow"/>
<feBlend mode="normal" in="SourceGraphic" in2="effect1_dropShadow" result="shape"/>
</filter>
<filter id="filter1_d" x="11.0137" y="6.85254" width="42.5312" height="43.9194" filterUnits="userSpaceOnUse" color-interpolation-filters="sRGB">
<feFlood flood-opacity="0" result="BackgroundImageFix"/>
<feColorMatrix in="SourceAlpha" type="matrix" values="0 0 0 0 0 0 0 0 0 0 0 0 0 0 0 0 0 0 127 0"/>
<feOffset dy="4"/>
<feGaussianBlur stdDeviation="2"/>
<feColorMatrix type="matrix" values="0 0 0 0 0 0 0 0 0 0 0 0 0 0 0 0 0 0 0.25 0"/>
<feBlend mode="normal" in2="BackgroundImageFix" result="effect1_dropShadow"/>
<feBlend mode="normal" in="SourceGraphic" in2="effect1_dropShadow" result="shape"/>
</filter>
</defs>
</svg>
